<svg width="29" height="26" viewBox="0 0 29 26" fill="none" xmlns="http://www.w3.org/2000/svg">
<path fill-rule="evenodd" clip-rule="evenodd" d="M12.8254 0.513455C9.90511 0.876 7.23264 2.07213 5.04704 3.99485C2.31166 6.40127 0.602763 9.60823 0.124168 13.233C-0.183982 15.5672 0.0832596 17.9876 0.905414 20.3094C1.17381 21.0673 1.85894 22.4422 2.33915 23.1867C2.72938 23.7916 3.32426 24.5752 3.83083 25.1515L4.06261 25.4151L4.10001 24.9651C4.17324 24.0843 4.3761 23.3752 4.73396 22.7492C4.93751 22.3931 5.61222 21.7219 5.98987 21.4997C6.2689 21.3354 6.30588 21.2939 6.31976 21.1296C6.33626 20.9335 6.33129 20.9253 5.72577 20.1497C5.36839 19.6918 5.00744 18.9599 4.85946 18.3928C4.7206 17.8606 4.6677 16.7419 4.75339 16.1481C4.83526 15.5804 5.03232 14.7904 5.20339 14.3438C5.45529 13.6864 6.00056 12.6034 6.35313 12.0604L6.697 11.5307V10.3967C6.697 9.77299 6.71235 9.26266 6.7311 9.26266C6.74985 9.26266 8.15819 9.73168 9.8608 10.3049C11.5634 10.8781 13.1096 11.3808 13.2969 11.422C13.741 11.5195 14.7535 11.5187 15.1563 11.4204C15.3292 11.3781 16.8436 10.8783 18.5218 10.3094L21.5729 9.27512V10.3859V11.4967L21.9084 11.9634C22.7488 13.1326 23.3534 14.4068 23.678 15.6931C23.8361 16.3191 23.8486 16.4316 23.8457 17.195C23.8432 17.8658 23.8214 18.0999 23.7297 18.4461C23.5667 19.0605 23.2076 19.7558 22.7534 20.336C22.3974 20.7908 22.3589 20.8625 22.3711 21.048C22.3841 21.2441 22.4035 21.265 22.7649 21.4739C23.9759 22.1737 24.6216 23.3258 24.7453 25.0076C24.7653 25.2784 24.793 25.5 24.8071 25.5C24.8211 25.5 24.9683 25.3503 25.1341 25.1673C28.2218 21.7597 29.543 17.2519 28.7957 12.6743C28.3309 9.8274 26.985 7.10416 25.0114 5.01732C22.8163 2.69639 20.1634 1.23439 17.0944 0.65432C16.415 0.525912 16.2378 0.514786 14.6849 0.50318C13.763 0.496312 12.9263 0.500944 12.8254 0.513455ZM14.7589 3.94022C15.1199 3.98787 16.5884 4.4661 23.0393 6.6369C24.7667 7.2182 24.9503 7.32914 24.6519 7.61173C24.5771 7.68253 22.9023 8.27032 19.9508 9.26165C15.2788 10.8308 15.1308 10.877 14.5775 10.9388C13.904 11.0141 13.6276 10.9355 8.85322 9.31239C6.36261 8.46565 4.2516 7.72954 4.16213 7.67657C3.96225 7.55828 3.92501 7.37455 4.07424 7.24301C4.19906 7.13291 4.36725 7.07355 9.57747 5.29958C13.8152 3.8567 13.9191 3.82944 14.7589 3.94022ZM8.21602 13.2789C8.21602 13.3504 8.24189 13.4251 8.27353 13.445C8.30517 13.4649 8.39945 13.5907 8.48305 13.7247C8.71829 14.1018 8.69838 14.3911 8.41244 14.749C7.96465 15.3094 7.88974 15.4175 7.73198 15.731C7.49192 16.208 7.37689 16.6345 7.34436 17.1684C7.24406 18.8137 8.28872 20.1859 9.86525 20.4796C10.9208 20.6762 12.0594 20.3023 12.875 19.4912L13.1811 19.1869L13.2151 19.4819C13.2871 20.1055 13.7245 21.0091 14.2601 21.6403L14.4407 21.8533L14.6414 21.6187C15.1517 21.0225 15.5975 20.1852 15.6787 19.6705C15.7585 19.1654 15.7231 19.1746 16.1274 19.555C17.1957 20.5603 18.7048 20.8133 19.9491 20.1957C20.2398 20.0513 20.4457 19.8943 20.7411 19.5914C21.3617 18.9552 21.6253 18.2857 21.6253 17.346C21.6253 16.4727 21.3327 15.6914 20.7345 14.9673C20.5681 14.7659 20.4058 14.5515 20.3739 14.4908C20.2471 14.2501 20.3436 13.8892 20.6345 13.5159C20.9069 13.1664 20.8462 13.1272 20.0918 13.1651C18.8829 13.2257 17.7028 13.5129 16.7801 13.971C16.0333 14.3417 15.5997 14.7573 15.2872 15.4017C14.9043 16.1912 14.8336 16.9141 15.0529 17.7949C15.0883 17.9367 15.0843 17.9402 14.9493 17.888C14.7667 17.8175 14.1046 17.8181 13.9743 17.8889C13.8531 17.9549 13.8517 17.9359 13.9522 17.5991C14.0524 17.2634 14.0511 16.5201 13.9497 16.0825C13.5852 14.5111 12.1627 13.5818 9.57789 13.2266C9.2754 13.1851 8.8452 13.1506 8.62196 13.15C8.22623 13.149 8.21602 13.1522 8.21602 13.2789ZM10.4505 14.6372C9.81722 15.3497 9.79506 16.4111 10.3992 17.0928C11.3154 18.1264 12.9826 17.205 12.9826 15.6649C12.9826 15.3364 13.0344 15.3371 13.2009 15.6681C13.4418 16.147 13.5219 16.8561 13.3974 17.408C13.1551 18.4818 12.2276 19.379 11.1087 19.6218C10.7339 19.7031 10.6206 19.7072 10.2707 19.652C8.52333 19.3762 7.68929 17.5516 8.5634 15.9173C8.89423 15.2988 9.49686 14.776 10.1574 14.5346C10.6119 14.3685 10.671 14.3891 10.4505 14.6372ZM18.8675 14.5549C19.7285 14.8842 20.3561 15.5664 20.6598 16.5029C20.7878 16.8976 20.7871 17.6023 20.6584 17.9936C20.4798 18.5368 20.0537 19.0874 19.6041 19.3562C19.3583 19.5031 18.6596 19.6976 18.3824 19.6962C18.0566 19.6946 17.4735 19.5444 17.1323 19.3741C16.0426 18.8301 15.346 17.5312 15.5431 16.4105C15.6079 16.0422 15.7766 15.6133 15.9362 15.4116C16.0163 15.3104 16.019 15.3156 15.99 15.518C15.9504 15.7943 16.088 16.3925 16.2595 16.69C16.8197 17.6615 18.0606 17.8165 18.6766 16.9918C19.1591 16.3458 19.0958 15.2705 18.5372 14.6239C18.3311 14.3854 18.3915 14.3727 18.8675 14.5549Z" fill="#16152E"/>
</svg>
